<?xml version="1.0" encoding="UTF-8" standalone="no"?>
<svg
   xmlns:dc="http://purl.org/dc/elements/1.1/"
   xmlns:cc="http://creativecommons.org/ns#"
   xmlns:rdf="http://www.w3.org/1999/02/22-rdf-syntax-ns#"
   xmlns:svg="http://www.w3.org/2000/svg"
   xmlns="http://www.w3.org/2000/svg"
   xmlns:xlink="http://www.w3.org/1999/xlink"
   xmlns:sodipodi="http://sodipodi.sourceforge.net/DTD/sodipodi-0.dtd"
   xmlns:inkscape="http://www.inkscape.org/namespaces/inkscape"
   viewBox="0 0 1200 60"
   height="64"
   width="1280"
   id="svg4225"
   version="1.1"
   inkscape:version="0.92.1 r15371"
   sodipodi:docname="spritesheet.svg"
   inkscape:export-filename="/home/szamocza/Devel/libs/Leaflet.draw/src/images/spritesheet.png"
   inkscape:export-xdpi="45"
   inkscape:export-ydpi="45">
  <metadata
     id="metadata4258">
    <rdf:RDF>
      <cc:Work
         rdf:about="">
        <dc:format>image/svg+xml</dc:format>
        <dc:type
           rdf:resource="http://purl.org/dc/dcmitype/StillImage" />
        <dc:title></dc:title>
      </cc:Work>
    </rdf:RDF>
  </metadata>
  <defs
     id="defs4256" />
  <sodipodi:namedview
     pagecolor="#ffffff"
     bordercolor="#666666"
     borderopacity="1"
     objecttolerance="10"
     gridtolerance="10"
     guidetolerance="10"
     inkscape:pageopacity="0"
     inkscape:pageshadow="2"
     inkscape:window-width="1920"
     inkscape:window-height="1056"
     id="namedview4254"
     showgrid="false"
     inkscape:zoom="5.2407406"
     inkscape:cx="698.71708"
     inkscape:cy="48.714848"
     inkscape:window-x="0"
     inkscape:window-y="24"
     inkscape:window-maximized="1"
     inkscape:current-layer="svg4225"
     showguides="true"
     inkscape:guide-bbox="true"
     inkscape:snap-global="false">
    <sodipodi:guide
       position="600,0"
       orientation="1,0"
       id="guide26"
       inkscape:locked="false"
       inkscape:label=""
       inkscape:color="rgb(0,0,255)" />
    <sodipodi:guide
       position="660,0"
       orientation="1,0"
       id="guide28"
       inkscape:locked="false"
       inkscape:label=""
       inkscape:color="rgb(0,0,255)" />
    <sodipodi:guide
       position="0,30"
       orientation="0,1"
       id="guide60"
       inkscape:locked="false"
       inkscape:label=""
       inkscape:color="rgb(0,0,255)" />
    <sodipodi:guide
       position="720,0"
       orientation="1,0"
       id="guide62"
       inkscape:locked="false"
       inkscape:label=""
       inkscape:color="rgb(0,0,255)" />
    <sodipodi:guide
       position="680.0163,27.593309"
       orientation="0.70710678,0.70710678"
       id="guide65"
       inkscape:locked="false"
       inkscape:label=""
       inkscape:color="rgb(0,0,255)" />
    <sodipodi:guide
       position="699.98455,41.501768"
       orientation="-0.70710678,0.70710678"
       id="guide67"
       inkscape:locked="false"
       inkscape:label=""
       inkscape:color="rgb(0,0,255)" />
    <sodipodi:guide
       position="698.28513,35.240725"
       orientation="-0.70710678,0.70710678"
       id="guide69"
       inkscape:locked="false"
       inkscape:label=""
       inkscape:color="rgb(0,0,255)" />
  </sodipodi:namedview>
  <g
     style="fill:#464646;fill-opacity:1"
     id="polyline">
    <path
       style="fill:#464646;fill-opacity:1"
       inkscape:connector-curvature="0"
       id="path4229"
       d="m 18,36 v 6 h 6 v -6 z m 4,4 h -2 v -2 h 2 z" />
    <path
       style="fill:#464646;fill-opacity:1"
       inkscape:connector-curvature="0"
       id="path4231"
       d="m 36,18 v 6 h 6 v -6 z m 4,4 h -2 v -2 h 2 z" />
    <path
       style="fill:#464646;fill-opacity:1"
       inkscape:connector-curvature="0"
       id="path4233"
       d="m 23.142,39.145 -2.285,-2.29 16,-15.998 2.285,2.285 z" />
  </g>
  <path
     style="fill:#464646;fill-opacity:1"
     inkscape:connector-curvature="0"
     d="M 100,24.565 97.904,39.395 83.07,42 76,28.773 86.463,18 Z"
     id="polygon" />
  <path
     style="fill:#464646;fill-opacity:1"
     inkscape:connector-curvature="0"
     d="m 140,20 h 20 v 20 h -20 z"
     id="rectangle" />
  <path
     style="fill:#464646;fill-opacity:1"
     inkscape:connector-curvature="0"
     d="m 221,30 c 0,6.078 -4.926,11 -11,11 -6.074,0 -11,-4.922 -11,-11 0,-6.074 4.926,-11 11,-11 6.074,0 11,4.926 11,11 z"
     id="circle" />
  <path
     style="fill:#464646;fill-opacity:1"
     inkscape:connector-curvature="0"
     d="m 270,19 c -4.971,0 -9,4.029 -9,9 0,4.971 5.001,12 9,14 4.001,-2 9,-9.029 9,-14 0,-4.971 -4.029,-9 -9,-9 z m 0,12.5 c -2.484,0 -4.5,-2.014 -4.5,-4.5 0,-2.484 2.016,-4.5 4.5,-4.5 2.485,0 4.5,2.016 4.5,4.5 0,2.486 -2.015,4.5 -4.5,4.5 z"
     id="marker" />
  <g
     style="fill:#464646;fill-opacity:1"
     id="edit">
    <path
       style="fill:#464646;fill-opacity:1"
       inkscape:connector-curvature="0"
       id="path4240"
       d="m 337,30.156 v 0.407 5.604 c 0,1.658 -1.344,3 -3,3 h -10 c -1.655,0 -3,-1.342 -3,-3 v -10 c 0,-1.657 1.345,-3 3,-3 h 6.345 l 3.19,-3.17 H 324 c -3.313,0 -6,2.687 -6,6 v 10 c 0,3.313 2.687,6 6,6 h 10 c 3.314,0 6,-2.687 6,-6 v -8.809 l -3,2.968" />
    <path
       style="fill:#464646;fill-opacity:1"
       inkscape:connector-curvature="0"
       id="path4242"
       d="m 338.72,24.637 -8.892,8.892 H 327 V 30.7 l 8.89,-8.89 z" />
    <path
       style="fill:#464646;fill-opacity:1"
       inkscape:connector-curvature="0"
       id="path4244"
       transform="rotate(-134.99,340.703,19.816999)"
       d="m 338.697,17.826 h 4 v 4 h -4 z" />
  </g>
  <g
     style="fill:#464646;fill-opacity:1"
     id="remove">
    <path
       style="fill:#464646;fill-opacity:1"
       inkscape:connector-curvature="0"
       id="path4247"
       d="m 381,42 h 18 V 24 h -18 z m 14,-16 h 2 v 14 h -2 z m -4,0 h 2 v 14 h -2 z m -4,0 h 2 v 14 h -2 z m -4,0 h 2 v 14 h -2 z" />
    <path
       style="fill:#464646;fill-opacity:1"
       inkscape:connector-curvature="0"
       id="path4249"
       d="m 395,20 v -4 h -10 v 4 h -6 v 2 h 22 v -2 z m -2,0 h -6 v -2 h 6 z" />
  </g>
  <g
     id="disabled"
     transform="translate(120)"
     style="fill:#bbbbbb">
    <use
       xlink:href="#edit"
       id="edit-disabled"
       x="0"
       y="0"
       width="100%"
       height="100%" />
    <use
       xlink:href="#remove"
       id="remove-disabled"
       x="0"
       y="0"
       width="100%"
       height="100%" />
  </g>
  <path
     style="fill:none;stroke:#464646;stroke-width:2;stroke-miterlimit:4;stroke-dasharray:none;stroke-opacity:1"
     id="circle-3"
     d="m 581.65725,30 c 0,6.078 -4.926,11 -11,11 -6.074,0 -11,-4.922 -11,-11 0,-6.074 4.926,-11 11,-11 6.074,0 11,4.926 11,11 z"
     inkscape:connector-curvature="0" />
  <path
     style="fill:#464646;fill-opacity:1;stroke-width:1"
     inkscape:connector-curvature="0"
     d="m 628.98225,22.381992 c 2.78283,-4.743456 10.9093,-1.581152 10.46658,2.213613 7.00744,-1.180819 9.33905,9.693433 3.85802,11.272041 1.07517,4.17424 -5.15391,7.146807 -8.94868,3.288796 -1.68749,4.093335 -12.81031,4.276029 -13.74669,-1.124349 -5.5285,2.161636 -8.52929,-5.351973 -4.57794,-8.032093 -3.44992,-6.126062 8.28619,-12.872396 12.94871,-7.618008 z"
     id="rectangle-3"
     sodipodi:nodetypes="ccccccc" />
  <path
     d="m 703.36051,17.918411 0.1081,16.041569 -4.38469,-4.321426 -13.76548,13.628056 -7.23668,-7.363168 13.70643,-13.813614 -4.18254,-4.309019 z"
     id="path4233-5"
     inkscape:connector-curvature="0"
     style="fill:#464646;fill-opacity:1"
     sodipodi:nodetypes="cccccccc" />
</svg>
